<svg height="512pt" viewBox="0 0 512.10557 512" width="512pt" xmlns="http://www.w3.org/2000/svg"><path d="m251.734375 145.121094c25.917969 0 46.933594-21.015625 46.933594-46.933594 0-25.921875-21.015625-46.933594-46.933594-46.933594-25.921875 0-46.933594 21.011719-46.933594 46.933594.027344 25.90625 21.023438 46.902344 46.933594 46.933594zm0-76.800782c16.492187 0 29.863281 13.371094 29.863281 29.867188 0 16.492188-13.371094 29.867188-29.863281 29.867188-16.496094 0-29.867187-13.375-29.867187-29.867188 0-16.496094 13.371093-29.867188 29.867187-29.867188zm0 0"/><path d="m264.53125 102.453125c0 4.710937-3.820312 8.53125-8.53125 8.53125-4.714844 0-8.535156-3.820313-8.535156-8.53125 0-4.714844 3.820312-8.535156 8.535156-8.535156 4.710938 0 8.53125 3.820312 8.53125 8.535156zm0 0"/><path d="m362.667969 145.121094c25.917969 0 46.929687-21.015625 46.929687-46.933594 0-25.921875-21.011718-46.933594-46.929687-46.933594-25.921875 0-46.933594 21.011719-46.933594 46.933594.027344 25.90625 21.023437 46.902344 46.933594 46.933594zm0-76.800782c16.492187 0 29.863281 13.371094 29.863281 29.867188 0 16.492188-13.371094 29.867188-29.863281 29.867188-16.496094 0-29.867188-13.375-29.867188-29.867188 0-16.496094 13.371094-29.867188 29.867188-29.867188zm0 0"/><path d="m366.933594 102.453125c0 4.710937-3.820313 8.53125-8.535156 8.53125-4.710938 0-8.53125-3.820313-8.53125-8.53125 0-4.714844 3.820312-8.535156 8.53125-8.535156 4.714843 0 8.535156 3.820312 8.535156 8.535156zm0 0"/><path d="m290.132812 170.71875h-25.601562c-4.710938 0-8.53125 3.820312-8.53125 8.535156 0 4.710938 3.820312 8.53125 8.53125 8.53125h25.601562c4.710938 0 8.535157-3.820312 8.535157-8.53125 0-4.714844-3.824219-8.535156-8.535157-8.535156zm0 0"/><path d="m358.398438 315.785156c0 4.714844-3.820313 8.535156-8.53125 8.535156-4.714844 0-8.535157-3.820312-8.535157-8.535156 0-4.710937 3.820313-8.53125 8.535157-8.53125 4.710937 0 8.53125 3.820313 8.53125 8.53125zm0 0"/><path d="m5.066406 370.261719c.957032 4.617187 5.472656 7.585937 10.089844 6.632812 4.613281-.957031 7.582031-5.472656 6.628906-10.085937l-3.472656-16.796875 19.875-8.453125c4.570312 6.195312 11.191406 10.566406 18.6875 12.335937l.136719 21.546875-16.792969 3.492188c-4.277344.890625-7.191406 4.867187-6.753906 9.210937.441406 4.347657 4.089844 7.660157 8.457031 7.675781.574219 0 1.148437-.058593 1.707031-.179687l23.640625-4.890625c3.988281-.8125 6.847657-4.332031 6.824219-8.402344l-.179688-28.632812c17.585938-4.550782 28.441407-22.171875 24.59375-39.925782 2.761719-1.515624 5.222657-3.523437 7.261719-5.921874l13.695313-16.445313v126.765625c.019531 13.144531 7.613281 25.105469 19.5 30.71875-1.609375 5.253906-2.429688 10.71875-2.433594 16.214844v2.386718c-7.910156 7.054688-10.632812 18.265626-6.84375 28.164063 3.792969 9.898437 13.3125 16.417969 23.910156 16.382813h76.800782c10.601562.035156 20.121093-6.484376 23.910156-16.382813 3.792968-9.898437 1.070312-21.109375-6.84375-28.164063v-2.386718c-.011719-4.3125-.535156-8.609375-1.550782-12.800782h45.773438c-1.019531 4.191407-1.539062 8.488282-1.554688 12.800782v2.386718c-7.910156 7.054688-10.636718 18.265626-6.84375 28.164063 3.792969 9.898437 13.3125 16.417969 23.910157 16.382813h76.800781c10.597656.035156 20.117188-6.484376 23.910156-16.382813 3.792969-9.898437 1.066406-21.109375-6.84375-28.164063v-2.386718c-.007812-12.121094-4.003906-23.902344-11.375-33.519532 1.851563-4.230468 2.816406-8.796874 2.839844-13.414062v-66.511719l9.566406 6.238281c.113282.359376.136719.726563.257813 1.078126 5.679687 17.257812 24.050781 26.875 41.472656 21.714843l14.410156 24.679688c1.523438 2.632812 4.332031 4.261719 7.375 4.265625.941407-.003906 1.878907-.15625 2.773438-.460938l22.824219-7.816406c2.914062-.964844 5.085937-3.417969 5.6875-6.429688.601562-3.011718-.460938-6.113281-2.78125-8.121093-2.320313-2.011719-5.539063-2.617188-8.433594-1.59375l-16.214844 5.554687-10.886719-18.679687c5.574219-5.304688 9.0625-12.429688 9.835938-20.085938l21.421875-2.832031 5.554687 16.210938c.9375 2.945312 3.394531 5.152343 6.425781 5.769531 3.027344.617187 6.152344-.453125 8.171876-2.792969 2.015624-2.34375 2.605468-5.59375 1.546874-8.496094l-7.816406-22.835937c-1.316406-3.84375-5.164062-6.222657-9.191406-5.691407l-28.390625 3.753907c-3.085937-7.765625-8.941406-14.113281-16.433594-17.816407-3.265625-1.546874-6.753906-2.566406-10.335937-3.023437l-46.839844-48.1875v-34.269531c31.066406-13.582032 51.160156-44.25 51.203125-78.15625v-42.667969h18.636719c4.15625 11.757813 16.175781 18.808594 28.464844 16.699219 12.289062-2.109375 21.269531-12.761719 21.269531-25.230469s-8.980469-23.125-21.269531-25.230469c-12.289063-2.109375-24.308594 4.941406-28.464844 16.695313h-18.636719v-46.8125c-.035156-25.972657-21.082031-47.0195315-47.054687-47.0507815h-178.960938c-25.972656.03125-47.019531 21.0781245-47.050781 47.0507815v46.8125h-18.636719c-4.15625-11.753907-16.179688-18.804688-28.464844-16.695313-12.289062 2.105469-21.273437 12.761719-21.273437 25.230469s8.984375 23.121094 21.273437 25.230469c12.285156 2.109375 24.308594-4.941406 28.464844-16.699219h18.636719v42.667969.75c-29.410157 4.480468-51.152344 29.746094-51.203125 59.496094v17.996093c-15.234375 4.066407-28.703125 13.046875-38.3125 25.550781l-14.59375 17.6875c-2.84375 3.441407-4.722656 7.582032-5.433594 11.988282-.941406.113281-1.886719.113281-2.824219.300781-17.730469 3.613281-29.496093 20.519531-26.71875 38.398437l-26.394531 11.222657c-3.738281 1.59375-5.835938 5.601562-5.007812 9.582031zm481.332032-276.34375c4.714843 0 8.535156 3.820312 8.535156 8.535156 0 4.710937-3.820313 8.53125-8.535156 8.53125-4.710938 0-8.53125-3.820313-8.53125-8.53125 0-4.714844 3.820312-8.535156 8.53125-8.535156zm-358.398438 17.066406c-4.714844 0-8.535156-3.820313-8.535156-8.53125 0-4.714844 3.820312-8.535156 8.535156-8.535156 4.710938 0 8.53125 3.820312 8.53125 8.535156 0 4.710937-3.820312 8.53125-8.53125 8.53125zm97.859375 336.105469c0 .109375.144531.195312.195313.304687 2.195312 4.191407 3.589843 8.757813 4.113281 13.457031h-76.339844c.523437-4.625 1.882813-9.117187 4.019531-13.25l.078125-.179687c6.582031-12.636719 19.621094-20.585937 33.867188-20.65625 14.246093-.070313 27.359375 7.753906 34.066406 20.324219zm4.539063 47.894531h-76.800782c-4.710937 0-8.53125-3.820313-8.53125-8.53125 0-4.714844 3.820313-8.535156 8.53125-8.535156h76.800782c4.714843 0 8.535156 3.820312 8.535156 8.535156 0 4.710937-3.820313 8.53125-8.535156 8.53125zm145.066406-221.863281v76.796875h-119.464844c-4.714844 0-8.535156-3.820313-8.535156-8.53125v-59.734375c0-4.710938 3.820312-8.53125 8.535156-8.53125zm8.304687 187.730468h-76.339843c.523437-4.695312 1.917968-9.25 4.105468-13.4375.050782-.121093.152344-.207031.203125-.324218 7.921875-14.832032 24.566407-22.789063 41.082031-19.632813 16.515626 3.15625 29.054688 16.6875 30.949219 33.394531zm.230469 34.132813h-76.800781c-4.710938 0-8.53125-3.820313-8.53125-8.53125 0-4.714844 3.820312-8.535156 8.53125-8.535156h76.800781c4.710938 0 8.53125 3.820312 8.53125 8.535156 0 4.710937-3.820312 8.53125-8.53125 8.53125zm66.796875-152.566406c2.632813 7.703125-.542969 16.195312-7.585937 20.28125-7.039063 4.085937-15.988282 2.628906-21.371094-3.480469-5.378906-6.109375-5.695313-15.171875-.753906-21.640625 4.941406-6.46875 13.765624-8.550781 21.078124-4.964844 4.074219 1.980469 7.183594 5.511719 8.632813 9.804688zm-31.871094-24.644531c-6.476562 3.308593-11.710937 8.621093-14.914062 15.148437-.710938 1.523437-1.300781 3.101563-1.769531 4.71875l-9.710938-6.332031v-40.695313zm-231.191406-270.667969c.015625-16.554688 13.429687-29.96875 29.984375-29.984375h178.960938c16.554687.015625 29.96875 13.429687 29.988281 29.984375v106.546875c-.042969 37.683594-30.582031 68.226562-68.269531 68.265625h-102.398438c-37.6875-.039063-68.226562-30.582031-68.265625-68.265625zm-15.171875 124.339843c8.4375 39.351563 43.191406 67.484376 83.4375 67.539063h102.398438c5.734374.007813 11.449218-.5625 17.066406-1.703125v18.773438h-119.464844c-14.140625 0-25.601562 11.460937-25.601562 25.597656v59.734375c0 14.136719 11.460937 25.597656 25.601562 25.597656h119.464844v51.203125.246094c-12.363282-7.960938-27.394532-10.664063-41.761719-7.507813-14.363281 3.15625-26.875 11.914063-34.765625 24.328125h-60.277344c-9.964844-15.652344-27.109375-25.273437-45.660156-25.617187-18.550781-.339844-36.042969 8.636719-46.578125 23.910156-6.003906-2.757813-9.863281-8.75-9.890625-15.359375v-136.371094c4.40625.886719 8.726562 2.15625 12.914062 3.796875 10.359376 4 22.117188.796875 29.011719-7.910156l.90625-1.09375c5.054688-6.378906 6.773438-14.785156 4.632813-22.640625-2.023438-7.722656-7.609375-14.015625-15.035156-16.945312-10.351563-4.066407-21.316407-6.347657-32.429688-6.757813v-16.367187c.050781-21.042969 15.273438-38.984376 36.03125-42.453126zm-78.261719 96.871094c8.304688-11.324218 20.808594-18.839844 34.707031-20.855468 1.601563-.183594 3.214844-.277344 4.828126-.28125 9.871093.144531 19.628906 2.078124 28.808593 5.707031 2.402344.957031 4.203125 3.007812 4.839844 5.511719.726563 2.582031.199219 5.359374-1.425781 7.492187l-.855469 1.066406c-2.292969 2.898438-6.195313 3.984375-9.65625 2.699219-7.0625-2.90625-14.527344-4.703125-22.136719-5.324219-2.75-.035156-5.480468.429688-8.066406 1.371094-.152344.050781-.304688.144531-.449219.195313l-.359375.164062c-6.738281 2.804688-12.621094 7.328125-17.066406 13.117188l-14.753906 17.730468c-.566406.613282-1.214844 1.144532-1.929688 1.578125-1.984375-2.355469-4.28125-4.433593-6.824218-6.167969-1.859376-1.214843-3.828126-2.246093-5.882813-3.089843.292969-1.15625.832031-2.238281 1.578125-3.164063zm-43.382812 43.160156c3.191406-4.9375 8.710937-7.867187 14.589843-7.742187 5.875.125 11.265626 3.289063 14.246094 8.355469v.0625c3.339844 5.59375 3.203125 12.601562-.351562 18.0625-5.183594 7.875-15.769532 10.058594-23.644532 4.875s-10.058593-15.773438-4.875-23.648438zm0 0"/></svg>